<svg width="152" height="152" version="1.1" viewBox="0 0 40.217 40.217" 
   xmlns="http://www.w3.org/2000/svg" 
   xmlns:xlink="http://www.w3.org/1999/xlink">
   <defs>
      <style type="text/css"><![CDATA[
      :root{
            --color1:#4b8a3b;
            --color2:#bc911c;
      }
         .corner1 {
            fill: var(--color1) !important;
         }

         .corner2 {
            fill: var(--color2) !important;
         }

         .middle {
         }
    ]]>      </style>
      <linearGradient id="b">
         <stop stop-color="var(--color1)" offset="0"/>
         <stop stop-color="var(--color2)" stop-opacity=".96517" offset="1"/>
      </linearGradient>
      <radialGradient id="a" cx="-270.01" cy="131.05" r="25" gradientTransform="matrix(.99999 -.005717 .0026297 .72158 -.34741 39.852)" gradientUnits="userSpaceOnUse" xlink:href="#b"/>
      <g id="middle-g">
         <rect x="-293.21" y="98.546" width="50" height="50" rx="0" ry="0" fill="none" style="paint-order:stroke fill markers"/>
         <path class="middle" d="m-252.92 138.07c-1.093-0.78495-2.0153-1.5152-3.052-1.9655 0.75612 0.98125 0.97142 2.0917 0.0413 2.9458-0.6575 0.60268-1.1606 1.0735-2.0211 1.2269-0.25659 0.0461-0.59589-0.0185-0.88876 0.0205-0.65968 0.0872-0.81266 0.22621-1.3991 0.11084-1.3034-0.25648-2.7707-1.1162-4.1451-0.98894-1.1969 0.21287-2.3372 1.4188-0.87789 1.9066 0.17257-0.28314-0.22257-0.4724 0.0246-0.6945 0.311-0.27957 1.2563-0.16158 1.5956 0.15642 0.52924 0.49342-0.2878 0.99663-1.086 1.2413-1.7347-0.0539-2.2119-1.6162-1.3346-2.4369 0.67635-0.63349 1.8029-0.53499 2.7888-0.55348-0.456-0.32878-0.99899-0.54164-1.1026-0.91044 0.43204-0.15388 0.88007 0.25543 1.3208 0.35085 0.23124-0.22723 0.0971-0.46163 0.024-0.69402 0.1291-0.62576 0.37769-1.4193 1.4962-1.5993 0.17469-0.0744 0.0521-0.15385 0.22692-0.22826 0.76335-0.18824 2.3995 0.23801 2.7874 0.93612 0.10578 0.18977 0.0602 0.66731-0.11512 0.8253-0.82279 0.73913-3.0447-0.28622-1.294-1.0459-0.75012-0.53305-1.8631-0.1949-2.2306 0.49602-0.22908 0.4319-0.0651 1.3952 0.28709 1.7594 0.30086 0.30825 1.2069 0.80073 1.6652 0.91761 0.66261 0.16927 1.9211 0.11387 2.4749-0.12822 1.7435-0.76275 2.2226-2.2744 1.1084-3.5572-0.48559-0.0842-0.61921-0.42361-1.0011-0.6438-0.4712-0.27288-1.1708-0.33083-2.0255-0.46061-1.8986-0.28981-3.7849-0.66733-5.4972 0.71144-1.1077 0.27597-2.1545 1.3306-2.3234 2.0502-1.2802 1.151-1.1026 2.6072-1.4738 3.8824 0.0486 0.37598 0.20585 0.75298 0.22039 1.1285-0.25878 0.20055-0.51761 0.40419-0.78582 0.2862-0.29215-0.3021 0.0956-0.59398-0.16748-0.89608 0.3429-0.85917-0.12825-1.8973-0.50236-2.6883-0.0761-0.16262-0.0748-0.36059-0.15518-0.49855-0.15963-0.27489-0.64364-0.48943-0.53938-0.83508-0.75457-0.76277-1.526-1.6296-2.638-2.1907-0.96928-0.48983-2.1654-0.49397-2.9708-0.80531-0.63431 0.0795-1.2606 0.0169-1.8188 0.13695-1.0779 0.23337-2.1052 0.64731-2.572 1.6168-0.17468 0.56065-0.31318 1.0772-0.18634 1.5516 0.14204 0.53347 0.76479 1.0541 1.3114 1.6419 0.41464 0.0812 0.71987 0.0805 1.0396 0.34676 0.55021-0.0373 0.93299 0.22314 1.5028 0.22107 1.426-6e-3 2.2894-1.2474 2.322-2.1158-0.24286-0.66323-1.2106-1.7768-2.3734-1.1603 0.69746 0.35799 0.72856 1.0059-0.0986 1.3541-1.0882 0.14101-1.3288-0.78019-1.2549-1.2756 0.35373-0.5078 0.81771-0.5119 1.3795-0.77401 0.6133 0.0986 1.2918 0.0625 1.8363 0.39138 1.0322 0.6248 1.3339 1.6116 1.0519 2.3662 0.67637-0.42315 1.418-1.1223 2.3009-1.2895 0.18783 0.81298-1.6637 1.4152-2.2292 2.0512 0.39571 0.16833 1.0584-0.14669 1.5905 0.0236 1.1077 0.35596 1.2317 1.2582 1.0403 1.9681-0.60822 0.27645-1.1925 0.53908-1.7217 0.27235-0.86922-0.43648 0.0246-1.586 1.0976-0.84427 0.42842-0.52883-0.58576-1.1018-1.249-1.0777-0.78943 0.1749-1.5818 0.26261-2.3734 0.39495-1.4063 0.476-3.2317 0.3129-4.8404-0.76784-0.21969-0.31134-0.51903-0.76532-0.82496-0.9715-0.0148-0.25397-0.0943-0.50987-0.34941-0.76735-0.17108-0.5868 0.45524-1.1613 0.36824-1.7481-1.3273 0.36879-1.5129 1.7075-2.7003 1.9784-0.23523-0.15774-0.35669-0.31492-0.38709-0.46986 1.0098-0.74836 2.2263-1.685 3.2042-2.3339-0.48788-0.12765-0.96198 0.18108-1.447 0.1437-0.73432 0.44266-1.4912 0.15644-2.2371 0.23081-1.7188-0.45396-3.6051-1.9527-3.368-3.095-0.77575-0.48927-0.41392-1.5157-1.186-2.1358-0.24165-0.19423-0.56043-0.4498-0.81416-0.64061-0.40521-0.30418-0.71769-0.12929-1.223-0.21696-0.46613 0.10834-0.91342 0.48522-0.72493 0.78374 0.18825 0.0215 0.36762-0.23537 0.55237-0.32314 0.32694 6e-3 0.65464-6e-3 0.99099 0.31237 0.25083 0.70169-0.83802 1.3254-1.6565 0.90224-0.97649-0.5042-0.7996-1.2982-0.0579-1.9204 0.79019-0.18978 1.5804-0.36622 2.3814-0.12975 0.95991 0.64111 1.4506 1.4265 1.8442 2.2118 0.9098-0.84787 2.2915-1.6347 3.5964-1.7332 0.78512 0.2067 1.5651 0.20979 2.3553 0.56576 0.75246 0.61966 1.7805 1.2802 2.6438 0.83352 1.239 0.79959-0.47991 1.8506-1.3803 0.77349-0.34866 0.51551 0.0725 1.188-0.60314 1.7112-0.36022 0.2796-1.1106 0.58677-1.5709 0.6386-0.54152 0.061-1.0294-0.23185-1.5985-0.28878-0.46764-0.38414-0.62997-0.65191-0.82568-0.972 0.0767-0.82378 1.1062-1.2988 2.1277-0.82839 0.27036 0.31344 0.10515 0.61909 0.0282 0.92684-0.37044 0.18314-0.74306 0.18416-1.115 0.24726 0.73652 1.1992 2.7432 0.037 2.9186-0.91508-0.22836-0.81198-1.0838-1.8573-2.4446-1.9891-0.82351 0.0472-1.5383-0.0442-2.1458 0.23286-2.2749 1.0371-1.31 4.2281 1.7246 4.4599 0.24293 0.0189 0.65314-0.0373 1.0272-0.0507 0.97361-0.0322 1.8232-0.30006 2.8852-0.48627 0.73944-0.12929 1.5238-0.0986 2.3263-0.4283 1.0149 0.0566 2.0334 0.25185 3.0447 0.14461-1.1752-0.65703-2.2546-1.1767-3.0506-1.8988-0.29792-0.70324-0.56469-1.2603-0.34072-1.9902 0.1043-0.12513 0.21887 0.0299 0.3248-0.0943 0.42484 0.21543 0.33493 0.42369 0.34578 0.63452 0.7699 1.4844 3.1578 2.7719 4.9375 4.0116 0.0979 0.14927 0.1855-0.079 0.28342 0.0703 1.0794 0.95974 2.2371 1.9245 2.8925 2.8899 0.15455 0.0416 0.14861-0.19339 0.36684-0.25955-0.0341-0.76171-0.39582-1.5286-0.39658-2.2892 1.716-0.42625 0.95915 0.48469 1.0251 1.4383 8e-3 0.11786 0.11765 0.24718 0.10451 0.33239-0.0191 0.12363-0.21602 0.25235-0.22399 0.3606-0.0191 0.29594 0.22255 0.67039 0.11956 0.86223 0.56545-0.31186 0.43785-0.93558 0.75248-1.4116 0.19143-0.28721 0.70683-0.44671 0.67783-0.81709 0.67993-0.4904 1.5093-1.1223 2.153-1.5234 1.1019-0.68732 2.973-1.4172 3.9516-2.3231 0.18401-0.17029 0.34144-0.36778 0.35594-0.59039 0.91414-0.53396 0.33419-1.2418 0.93226-1.6732 1.7551 1.0479-0.095 2.5898-2.0465 3.4772 0.4581 0.20521 1.3165 0.24006 1.9276 0.32673 0.63863 0.49605 1.2549 0.28262 1.8798 0.29288 1.389 0.29339 3.0527 0.92791 4.5178 0.9274 0.0863 5.3e-4 0.22834-0.097 0.32406-0.0939 0.39585 0.0126 0.7735 0.15849 1.1729 0.11698 0.77202-0.0805 1.9486-0.50574 2.5865-1.0864 0.15094-0.13754 0.1414-0.34725 0.26534-0.52524 0.0769-0.11184 0.28352-0.20668 0.31824-0.29288 0.0935-0.23441-0.0312-0.88685-0.22327-1.1951-0.1202-0.1939-0.38057-0.34521-0.4842-0.53656-0.62489-1.1664-3.8153-1.2726-4.5359 0.0313-0.12317 0.22364-0.23415 0.6027-0.2103 0.75812 0.0443 0.28871 0.5285 1.212 1.3375 0.94636-0.0566-0.30984-0.23996-0.62117-0.12105-0.92892 1.4441-1.0002 2.6772 0.66732 1.4891 1.313-0.67274 0.36521-2.1574 0.19286-2.8171-0.3734-0.48426-0.41444-0.44364-0.85968-0.64662-1.2998-0.3682-0.0288-0.37542 0.25139-0.64377 0.38676-1.1816 0.10559-1.7028-0.79968-1.5869-1.446 0.43639-0.27801 0.86702 0.16618 1.2715 0.25031 0.41384 0.0878 0.55748-0.0907 0.93445 0.0135 1.1701-0.92432 3.3144-1.6496 4.8375-0.91971 0.97636 0.46839 1.2759 1.0433 1.6862 1.6465 0.54875-0.37806 0.11024-0.95404 0.14289-1.4531 0.0299-0.44676 0.43278-0.80068 0.43058-1.2515 0.48135-0.30982 0.67783-0.8561 1.1809-1.1731 1.3824-0.87556 3.8632-0.12675 3.9654 1.2505-0.56762 1.3875-3.7849 0.52166-2.0284-0.59293 0.3146 0.0903 0.62417 0.0262 0.94602 0.34519 0.33928-0.90172-1.3962-0.75815-2.0334-0.7258-2.2009 1.0146-1.4745 2.2671-1.6724 3.4823-0.0305 0.18573-0.19207 0.3657-0.21751 0.56011-0.0551 0.43088-0.19503 0.74015-0.33635 1.2516-0.77859 0.65139-1.3636 1.2551-2.1487 1.6557-0.76987 0.39393-2.0059 0.36572-2.8903 0.28776-0.64883-0.057-0.94386-0.0583-1.5035-0.22159 0.1573 0.46625 1.1802 0.73761 1.7616 1.0525 0.41756 0.3888 1.2821 0.93628 0.41029 1.1982" fill="url(#a)" fill-rule="evenodd"/>
      </g>
      <g id="corner-g">
         <rect width="13.229" height="13.229" fill-opacity="0" style="paint-order:stroke fill markers"/>
         <g transform="matrix(.23524 0 0 .25577 40.613 -6.1401)" fill-rule="evenodd">
            <g>
               <path class="corner2" d="m-163.9 30.196c0.42399 2.7147-3.2134 2.924-3.032 0.44 0.0401-0.548 0.41733-0.84267 0.58934-1.4067 1.308-0.17998 1.9827 0.11335 2.4427 0.96667"/>
               <path class="corner2" d="m-157.08 33.448c0.644 2.6173-1.7427 4.744-3.6226 3.252-0.1508-1.0733-0.0113-1.6667 0.67465-2.0213 0.78266 0.09067 1.04 0.73067 1.348 1.3173 0.67733 0.12268 0.768-0.36801 0.92534-0.79067-0.15345-1.0973-0.43336-2.0653-1.012-2.724-1.2507-0.476-3.0827-0.784-3.9574 0.70267-0.18407 0.31068-0.31446 0.91467-0.336 1.2307-0.16403 2.2333 1.5547 2.9627 2.7787 4.0427-0.336 0.616-1.5573 0.32266-2.0213 0.17734 0.0627 1.8227-1.688 3.2627-3.708 2.6347-0.58401-0.24-0.53333-1.14-1.0094-1.4933 0.0495-2.9107 3.9067-0.98 1.6014 0.35199 0.61334 1.22 1.7386-0.08666 2.1053-0.70267-0.0933-1.248-0.16667-2.252-0.42266-3.252-0.0881-0.34401-0.32013-0.68-0.33487-1.0547-0.0775-1.7467 1.3507-3.8347 2.9453-4.044 1.972-0.25735 3.6974 1.4533 5.308 2.0227 1.7093 0.604 3.476 0.11335 3.1174-1.6707-0.94 0.13867-2.1094-0.07332-1.9373-1.1427 0.10129-0.63333 1.0107-0.82667 1.6853-0.79067 2.1973 1.1693 1.0507 4.3667-1.2653 4.5707-1.1467 0.10001-1.584-0.72-2.8627-0.616"/>
               <path class="corner2" d="m-149.5 30.196c1.6467-0.58534 2.584 1.1373 1.7707 2.1093 0.0575-0.07068-0.51999 0.33199-0.59067 0.35199-1.5706 0.448-2.004-1.656-1.18-2.4613"/>
               <path class="corner2" d="m-166.34 45.049c0.34129-0.336 0.27855-0.74 0.5893-0.96667 0.94269-0.68533 2.6574 0.28932 2.36 1.4947-0.30916 1.2467-2.9146 1.3613-2.9493-0.528"/>
               <path class="corner2" d="m-148.74 56.3c1.7826-0.35599 1.712 2.088 0.4213 2.2853 0.81468 1.4707 2.6387 0.13466 3.0333-0.88 0.24529-2.416-0.90667-3.7067-1.096-5.5373-0.18784-1.8147 0.672-3.1 2.0213-3.7787 0.99867 0.17998 1.9013 0.02381 2.8626 0.264 0.53201 0.13066 1.008 0.68133 1.5174 0.79067 0.16781 0.03591 0.36813-0.096 0.5893-0.08799 0.408 0.01323 0.84 0.336 1.18 0.35199 1.284 0.06134 2.9653-1.116 2.1054-2.5493-0.50536 0.17068-0.75466 0.9-1.3467 0.968-1.6773 0.18667-1.7187-2.616-0.25323-2.9013 1.0747-0.20935 2.4373 0.764 2.696 1.8453 0.22526 0.94133-0.13984 1.4867-0.59067 2.4613-1.2786 1.0067-2.5066 1.1067-4.1253 0.70266-1.296-0.32134-3.1147-1.6413-4.72-0.70266-0.64399 0.37599-0.81864 1.184-1.0947 2.1093 0.068 1.5547 1.008 2.6187 1.18 4.1307 0.21997 1.9307-0.34922 3.5627-2.1067 4.3053-0.676 0.05068-1.6067-0.12665-2.1893-0.43867-1.16-0.548-1.288-2.7147-0.0839-3.3387"/>
               <path class="corner2" d="m-145.96 49.532c-0.40535 0.15065-0.60268-0.0013-1.0107 0.17601-0.29745-0.30535-0.61334-0.59066-0.84401-0.96667-0.17196-2.5947 3.6773-1.044 1.8547 0.79067"/>
               <path class="corner2" d="m-142.84 51.553c1.2453 0.34265 2.332 0.84933 3.6226 1.1427 0.59736 1.236 1.4294 2.652 1.8547 3.7787-0.0865 0.23199-0.52134 0.10265-0.58934 0.35199-1.1707-0.56533-2.4894-0.976-3.7067-1.4947 0.0627-1.68-1.2627-2.3707-1.1813-3.7787"/>
            </g>
            <path class="corner1" d="m-136.19 34.326c0.59735-0.31733 0.76535-1.3333 1.18-1.9333 0.56001-0.81334 1.448-1.1947 2.1053-1.9333 0.57733-0.07068 1.0533-0.24934 1.5146-0.43867 0.27591-0.05201 0.39466 0.05866 0.59066 0.08666 1.148-0.78133 3.004 0.08935 4.0427 0.35199 0.17726 0.04532 0.4653-0.04532 0.59067 0 0.87065 0.32266 1.6013 1.4707 2.528 2.1093 0.864 0.596 1.976 1.264 2.6947 2.1093 2.0426 0.52933 4.7413-0.81334 3.3693-2.6373-0.71736 2.1693-3.5947-0.12801-1.9387-1.6693 0.96934-0.57733 2.3467-0.06535 2.8653 0.61466 0.82534 2.4373-0.58802 4.796-2.5267 4.9227-2.3533 0.15334-3.2373-1.9093-4.884-2.7253-0.1081 1.36 0.12283 2.7293-0.42403 3.956-0.50131 1.1293-1.5533 1.792-2.3586 2.548-1.1 0.37599-2.888 0.03326-3.6213 0.79067-0.034 0.47067-0.12133 1.1267-0.16782 1.32-1.2867 0.752-2.6267-1.4867-1.432-2.6373 0.19994-0.20134 0.63866-0.15466 0.92666-0.264-0.39866-0.76133-1.004-1.62-1.012-2.6373-8e-3 -1.5987 0.696-3.112 2.3587-3.1627 0.57199-0.01739 1.2306 0.384 1.7707 0.52667 1.5933 2.0067-2.0987 3.3573-2.0227 0.79067-0.94666-0.16532-0.89333 0.70933-1.2627 1.1427-4e-3 1.7627 0.86933 2.6067 1.9374 3.252 3.248 0.42266 5.1947-2.708 4.0427-5.8-0.11717-0.31601-0.59599-0.99467-0.92666-1.2307-0.14514-0.10265-0.53333-0.11467-0.75735-0.264-0.32126-0.21332-0.59467-0.576-1.18-0.70267-0.79998-0.17465-1.5866 0.11868-2.3586 0.17465-2.196 0.16399-3.2827 1.3307-4.5494 2.9893-1.048 1.372-1.348 2.4787-2.1053 4.1307-0.28686 0.624-0.51469 1.32-0.75734 1.6693-0.14664 0.20935-0.40932 0.24801-0.59066 0.44-0.23471 0.25066-0.31333 0.66934-0.504 0.87733-0.39202 0.42667-1.0067 0.576-1.4334 1.144 2.6507-0.64267 5.648-0.30134 7.5814 1.0533 0.43333 0.30399 0.88664 0.78533 1.012 1.232-0.42002 0.76267-1.256 0.03866-1.8547-0.17601-0.69732-0.25066-1.4946-0.36132-2.0213-0.70267-3.5826-0.50667-8.0667 0.60266-11.96 0.264-1.796-0.15734-3.2813-1.0733-4.7187-1.5827-0.0465 0.31733 0.33751 0.588 0.75867 0.528 1.2867 1.4973 3.2307 2.3093 4.464 3.8667-0.1561 0.51067-0.50132 0.82267-0.92667 1.0547-1.6773-1.3253-2.9907-3.0307-4.548-4.484 0.16932 1.516 1.108 2.828 1.348 4.484 0.0918 0.65067 0.17197 1.4733 0.16819 2.196-0.0227 2.4413-0.62268 5.132-0.16819 7.7347 0.10923 0.632 0.52664 1.86 0.84132 2.46 0.26117 0.50266 1.032 1 0.50532 1.7587-2.8653-0.67067-2.9306-4.4333-2.6946-7.4707-0.27061-0.01474-0.73334 0.524-0.84268 0.96667-1.2907 0.94-2.9493 1.4747-4.548 2.1973-0.32655 0.14801-0.54134 0.49333-0.84401 0.616-0.11452 0.04668-0.31181-0.06266-0.42002 0-1.6947 0.964-3.5586 2.888-3.4546 5.0973 0.0692 1.44 0.53465 2.3453 1.264 3.252 1.4427 1.2413 4.288 0.856 5.2227-0.70267 1.0747-1.772-0.0933-4.788-2.2747-4.22-0.45199 0.11868-0.48132 0.52267-0.84264 0.87867 0.14816 0.22934 0.55997 0.17866 0.92666 0.17601 1.2907 1.4133-0.21581 3.2067-1.852 2.0213-0.76536-1.2-0.26003-3.884 1.516-3.4267 0.24265-0.01058 0.14551-0.37466 0.41998-0.35199 1.5453 0 2.5773 0.53333 3.1174 1.5813 4e-3 -0.86133 0.28271-1.6453 0.92666-2.196 0.64267 0.03213 1.156 0.19865 1.4333 0.61467 0.0302 0.73733-0.34129 1.0507-0.75866 1.3173-0.79068 1.456-1.064 3.9227-2.444 5.0107-0.35338 0.27999-1.544 0.99467-2.1053 1.0547-0.97864 0.10666-1.736-0.48266-2.948-0.35066 0.288 1.288 1.348 2.46 1.348 3.9533 0 1.992-1.004 3.6187-3.2 3.78-2.0773 0.15201-3.4253-2.7213-1.348-3.9547 2.4-0.56267 1.6386 2.968-0.0865 2.0213 0.50532 1.9107 3.2106 0.72533 3.5387-0.528 0.36661-1.4027-0.13985-2.7253-0.67336-3.7787-0.428-0.84267-1.12-1.8107-1.5173-2.7253-0.13985-0.32534-0.12246-0.68933-0.25059-0.96667-0.14286-0.30266-0.37455-0.416-0.42266-0.70267-0.13077-0.768-0.0828-1.936 0-2.5493 0.26003-1.9067 2.0053-3.312 3.1174-4.3933-1.8387-0.484-4.3853 1.4533-5.8973 0 0.16818-0.80533 0.90799-0.38533 1.432-0.35199 1.2454 0.07865 2.852-0.29866 4.0427-0.528 0.35754 0.09067 0.80402 0.16135 0.92803-0.35066-0.37191-0.47066-0.96-0.26665-1.432-0.44-0.62664-0.23066-0.91464-0.85333-1.5173-1.1427-0.70798-1.3813-1.332-2.9067-1.0933-4.6573 0.10545-0.78 0.81331-1.388 0.84264-2.1973 0.65602-0.39067 0.87069-1.0747 1.5147-1.4947 0.35452-0.23066 0.85999-0.22802 1.2653-0.43866 0.66667-0.34802 1.86-0.81334 2.6094-1.4067 0.52399-1.0387 0.44798-3.3867-1.0947-2.5493 0.1852 0.25999 0.1028 0.47066 0.42267 0.70267-0.1493 1.8413-2.0867 1.4453-2.1067 0.08935-8e-3 -0.54533 0.38533-1.356 0.67333-1.5813 0.86267-0.68266 2.3347 0.144 3.0333 0.78934 0.39069 1.1813-0.0454 2.2107-0.50664 2.9893 0.85731-0.06667 2.2973-0.24401 3.1173-0.264 0.0189 0.83733-1.1066 0.48533-1.2653 1.1427-0.94533-0.02532-1.1747 0.0068-1.852 0 1.184 1.1133 2.4973 2.1373 2.1053 4.6587-0.65333 1.7653-3.4773 3.3827-4.8 1.3173 0.21316-0.42533-0.0412-0.81467-0.0839-1.2293 0.576-1.5867 3.1973-0.60933 2.1053 1.1413 0.83467 0.04267 1.668-0.62667 1.8547-1.3173 0.49598-1.8587-0.93067-3.6093-2.5293-3.956-2.34 0.07733-3.6133 1.1347-4.2947 3.428-0.86664 2.912 1.416 5.616 4.2947 5.8893 2.9933 0.28267 5.6267-1.8587 6.1493-4.7467 0.79733-0.45467 0.31484-2.1133 0.67332-2.636-0.52664-4.8587-3.0306-8.368-6.0653-10.899 0.22148-1.0213 1.04 0.04135 1.4333 0.17465 1.288 1.468 3.072 2.4213 4.632 3.604 2.7653 0.608 5.088 1.8467 8.5934 0.88 1.284-0.35467 2.7933-1.3307 3.7053-2.1987 0.94666-0.89734 2.132-2.352 2.0213-4.3933-0.12397-2.372-1.452-5.0013-4.464-4.8347-2.076 0.11599-3.8 1.8053-3.9587 3.8667-0.23849 3.112 3.344 4.4387 4.8853 2.9013 0.31862-0.31601 0.48-1.1053 0.25474-1.6707-0.49065 0.32799-1.2586-0.0042-1.6867 0-1.968-2.244 2.348-3.3733 2.6973-0.35066 0.0854 0.75334-0.17726 1.1933-0.25323 1.9333-0.39469 0.26132-0.6387 0.68134-0.9267 1.0547-0.69063-0.0094-0.95067 0.18399-1.4333 0.528-2.4133 0.17333-3.1147-1.4373-4.212-2.6373-0.38933 1.2253 1.0867 2.908-0.0828 3.692-0.70534-0.75467-0.30803-2.648-0.33713-4.22-0.71467 0.77067-0.89734 2.0053-2.1907 2.1987-1.736 0.25867-3.4826-1.1947-2.78-3.4293 0.57736-1.0813 3.136-1.8773 2.864 0.528-0.52532 0.58667-1.4893 0.50134-1.8533-0.17601-1.2267 1.096 0.61731 2.7853 1.8533 2.3733 0.93732-0.31068 1.6467-2.52 2.1906-3.516 0.35981-0.656 0.78535-1.78 1.264-2.3733 0.78131-0.48133 2.348-1.7613 3.6226-1.7573 0.34545 0.0013 0.81468 0.38933 1.264 0.44 0.24529 0.02797 0.484-0.14136 0.672-0.08799 1.44 0.40533 2.6787 2.468 3.1173 3.9547 0.72669-1.512-0.49598-3.98 0.59067-5.0973 1.2587 0.22133 0.72669 2.6467 0.42002 3.516 0.1028 0.33199 0.29858 0.93733 0.0839 1.3173"/>
         </g>
      </g>
   </defs>
   <g transform="matrix(1.1014 0 0 1.1014 -2.04 -2.04)">
      <rect x="2.1159" y="2.1159" width="35.985" height="35.985" rx="2.0993" ry="2.0993" fill="none" style="paint-order:markers stroke fill"/>
   </g>

   <use xlink:href="#corner-g"/>

   <g transform="rotate(180 20.108 20.108)">
      <use xlink:href="#corner-g"/>
   </g>
   <g transform="matrix(1 0 0 -1 0 40.217)">
      <use xlink:href="#corner-g"/>
   </g>
   <g transform="matrix(-1 0 0 1 40.217 0)">
      <use xlink:href="#corner-g"/>
   </g>
   <g transform="matrix(.26458 0 0 .26458 91.073 .91394)">
      <use xlink:href="#middle-g"/>
   </g>
   <g transform="matrix(0 .26458 .26458 0 .91394 91.073)">
      <use xlink:href="#middle-g"/>
   </g>
   <g transform="matrix(.26458 0 0 -.26458 91.073 39.303)">
      <use xlink:href="#middle-g"/>
   </g>
   <g transform="matrix(0 .26458 -.26458 0 39.303 91.073)">
      <use xlink:href="#middle-g"/>
   </g>
</svg>